# xmcd
#
# Track frame offsets:
#	150
#	36533
#	63351
#	105221
#	135179
#	172776
#	179977
#	210839
#
# Disc length: 3305 seconds
#
# Revision: 2
# Processed by: cddbd v1.5.2PL0 Copyright (c) Steve Scherf et al.
# Submitted via: EZCDDA 4.3.2
#
DISCID=620ce708
DTITLE=Primordial - To The Nameless Dead
DYEAR=1900
DGENRE=
TTITLE0=Empire Falls
TTITLE1=Gallows Hymn
TTITLE2=As Rome Burns
TTITLE3=Failures Burden
TTITLE4=Heathen Tribes
TTITLE5=The Rising Tide
TTITLE6=Traitors Gate
TTITLE7=No Nation On This Earth
EXTD=
EXTT0=
EXTT1=
EXTT2=
EXTT3=
EXTT4=
EXTT5=
EXTT6=
EXTT7=
PLAYORDER=
